<svg width="386" height="353" viewBox="0 0 386 353" fill="none" xmlns="http://www.w3.org/2000/svg">
<path fill-rule="evenodd" clip-rule="evenodd" d="M315.996 1H237.858V137.316H237.011C227.158 123.846 215.752 114.199 202.799 108.364C189.846 103.422 175.414 100.958 159.509 100.958C128.396 101.707 104.605 114.441 88.1308 139.167C71.3781 163.439 63 191.081 63 222.096C63 258.356 71.9387 288.77 89.8237 313.345C107.137 338.366 132.55 351.251 166.059 352C184.504 351.705 200.76 346.939 214.837 337.702C228.776 328.555 238.279 317.23 243.35 303.735H244.404V346.473H316V1H315.996ZM143.4 223.893C143.4 207.389 147.625 193.439 156.075 182.036C163.821 170.633 175.371 164.782 190.728 164.479C205.382 164.782 216.861 170.629 225.171 182.036C233.625 193.435 237.997 208.511 238.275 227.263C237.997 244.967 233.347 259.371 224.329 270.475C215.453 282.169 204.249 288.176 190.728 288.475C175.939 288.475 164.529 282.321 156.496 270.022C147.768 258.622 143.4 243.248 143.4 223.893V223.893Z" fill="#D40032"/>
</svg>
