<svg width="36" height="36" viewBox="0 0 36 36" fill="none" xmlns="http://www.w3.org/2000/svg">
<rect width="36" height="36" rx="6" fill="#2878FF"/>
<path fill-rule="evenodd" clip-rule="evenodd" d="M15.3703 19.0938C16.0209 19.8232 16.9571 20.2821 18.0002 20.2821C19.9622 20.2821 21.5519 18.6578 21.5519 16.655C21.5519 15.9625 21.3616 15.3161 21.0304 14.7646C21.0304 14.7632 21.0291 14.7621 21.0279 14.7606C20.4054 13.7218 19.2825 13.0293 18.0002 13.0293C16.0381 13.0293 14.447 14.6522 14.447 16.655C14.447 17.5934 14.7969 18.4488 15.3703 19.0938ZM24.0319 17.2986C24.034 21.8693 24.8664 23.1129 25.8111 24.1909C26.4825 24.9572 25.9199 26.5493 24.5095 25.8484C22.8139 25.006 21.9095 25.5032 20.8537 26.0837C20.0955 26.5006 19.2592 26.9604 17.9959 26.9978C16.6843 27.0367 15.8178 26.5529 15.0263 26.1109C13.9937 25.5344 13.0886 25.029 11.4892 25.8484C10.0873 26.5665 9.51606 24.9572 10.1876 24.1909C11.1243 23.1221 12.0066 21.898 12.0248 17.4227C12.0198 17.3312 12.0211 17.2771 12.0227 17.212C12.0236 17.1754 12.0246 17.1354 12.0246 17.0832C12.0246 15.2625 12.6512 13.6081 13.6725 12.3837C13.5695 12.2623 13.4613 12.1043 13.3544 11.9219C13.3438 11.9045 13.3346 11.8871 13.3255 11.8697C13.2288 11.7029 13.1336 11.5177 13.045 11.3204C12.9578 11.1257 12.8784 10.923 12.8108 10.7215C12.8082 10.713 12.8054 10.7045 12.8026 10.6961C12.7971 10.6791 12.7915 10.6622 12.7871 10.6451C12.7461 10.5148 12.7103 10.3848 12.6812 10.2598C12.5465 9.66769 12.5716 9.16021 12.9075 9.01657C13.098 8.93468 13.328 9.16552 13.5952 9.50519C13.6004 9.51186 13.6059 9.51854 13.6115 9.52543C13.6161 9.53102 13.6208 9.53675 13.6256 9.54274C13.6273 9.5449 13.629 9.54705 13.6308 9.5492C13.6409 9.56191 13.6512 9.57473 13.6614 9.58836C13.705 9.64545 13.7498 9.70497 13.7957 9.76601C13.9335 9.94905 14.0814 10.1457 14.2391 10.3309L14.2869 10.3873L14.3146 10.4196C14.5687 10.709 14.8472 10.963 15.15 11.0888C16.0053 10.5562 16.9868 10.2536 18.0306 10.2536C19.0482 10.2536 20.007 10.5414 20.8469 11.0493C21.1167 10.9142 21.3665 10.6814 21.5963 10.4196C21.5995 10.4158 21.6028 10.4121 21.606 10.4084C21.612 10.4013 21.6181 10.3943 21.6242 10.3873L21.6718 10.3309C21.8295 10.1457 21.9774 9.94904 22.1152 9.766C22.1611 9.70496 22.2059 9.64544 22.2495 9.58836C22.2616 9.57242 22.2734 9.55758 22.2853 9.54274C22.2898 9.53707 22.2943 9.53162 22.2987 9.52631C22.3046 9.5191 22.3104 9.51215 22.3157 9.50519C22.5829 9.16552 22.8129 8.93468 23.0036 9.01657C23.3393 9.16021 23.3646 9.66769 23.2297 10.2598C23.2004 10.3848 23.1648 10.5148 23.1238 10.6451C23.1195 10.6622 23.1139 10.6791 23.1083 10.6961C23.1055 10.7045 23.1027 10.713 23.1001 10.7215C23.0325 10.923 22.9533 11.1257 22.8659 11.3204C22.7773 11.5177 22.6821 11.7029 22.5856 11.8697C22.5764 11.8871 22.5671 11.9045 22.5565 11.9219C22.4745 12.0617 22.3919 12.1872 22.3114 12.2927C23.3783 13.5255 24.0365 15.217 24.0365 17.0832C24.0365 17.1848 24.0362 17.1927 24.0325 17.2843L24.0319 17.2986ZM19.474 17.965C20.4672 17.965 21.2721 17.1433 21.2721 16.1294C21.2721 15.1155 20.4672 14.2937 19.474 14.2937C18.4809 14.2937 17.6758 15.1155 17.6758 16.1294C17.6758 17.1433 18.4809 17.965 19.474 17.965Z" fill="white"/>
</svg>
