<svg width="192" height="200" viewBox="0 0 192 200" fill="none" xmlns="http://www.w3.org/2000/svg">
<path d="M33.0719 35.0525C39.2864 40.1007 41.6189 39.7175 53.2982 38.9345L163.385 32.3284C165.718 32.3284 163.777 29.9959 163.002 29.6127L144.708 16.3923C141.209 13.6765 136.536 10.5609 127.589 11.3357L21.0011 19.1163C17.1191 19.4995 16.336 21.4488 17.8855 22.9983L33.0719 35.0525ZM39.6779 60.7103V176.537C39.6779 182.76 42.7852 185.092 49.7911 184.701L170.774 177.703C177.78 177.32 178.563 173.038 178.563 167.982V52.9296C178.563 47.8814 176.622 45.1573 172.332 45.5405L45.9008 52.9296C41.2357 53.3212 39.6779 55.6537 39.6779 60.7019V60.7103ZM12.0542 8.61995L122.932 0.456108C136.544 -0.710155 140.052 0.0645771 148.607 6.28743L184.003 31.1622C189.834 35.4357 191.784 36.6019 191.784 41.267V177.703C191.784 186.25 188.676 191.315 177.789 192.082L49.0164 199.862C40.8525 200.254 36.9539 199.087 32.672 193.639L6.60605 159.818C1.941 153.595 0 148.938 0 143.49V22.2153C0 15.226 3.11559 9.38635 12.0542 8.61995Z" fill="black"/>
<path d="M87.2222 91.2222V81.1111C87.2222 78.4295 88.2875 75.8577 90.1837 73.9615C92.0799 72.0653 94.6517 71 97.3333 71C100.015 71 102.587 72.0653 104.483 73.9615C106.379 75.8577 107.444 78.4295 107.444 81.1111V91.2222C107.444 93.9039 106.379 96.4757 104.483 98.3719C102.587 100.268 100.015 101.333 97.3333 101.333C94.6517 101.333 92.0799 100.268 90.1837 98.3719C88.2875 96.4757 87.2222 93.9039 87.2222 91.2222ZM127.667 101.333C128.994 101.333 130.309 101.072 131.536 100.564C132.763 100.056 133.877 99.3108 134.816 98.3719C135.755 97.433 136.5 96.3183 137.008 95.0916C137.516 93.8648 137.778 92.55 137.778 91.2222V81.1111C137.778 78.4295 136.713 75.8577 134.816 73.9615C132.92 72.0653 130.348 71 127.667 71C124.985 71 122.413 72.0653 120.517 73.9615C118.621 75.8577 117.556 78.4295 117.556 81.1111V91.2222C117.556 93.9039 118.621 96.4757 120.517 98.3719C122.413 100.268 124.985 101.333 127.667 101.333ZM87.2222 116.5V111.444C87.2222 108.763 86.1569 106.191 84.2607 104.295C82.3645 102.399 79.7927 101.333 77.1111 101.333C74.4295 101.333 71.8577 102.399 69.9615 104.295C68.0653 106.191 67 108.763 67 111.444V116.5C67 119.182 68.0653 121.753 69.9615 123.65C71.8577 125.546 74.4295 126.611 77.1111 126.611C79.7927 126.611 82.3645 125.546 84.2607 123.65C86.1569 121.753 87.2222 119.182 87.2222 116.5ZM147.889 101.333C146.561 101.333 145.246 101.595 144.02 102.103C142.793 102.611 141.678 103.356 140.739 104.295C139.8 105.234 139.056 106.348 138.547 107.575C138.039 108.802 137.778 110.117 137.778 111.444V116.5C137.778 119.182 138.843 121.753 140.739 123.65C142.635 125.546 145.207 126.611 147.889 126.611C150.571 126.611 153.142 125.546 155.039 123.65C156.935 121.753 158 119.182 158 116.5V111.444C158 108.763 156.935 106.191 155.039 104.295C153.142 102.399 150.571 101.333 147.889 101.333ZM136.767 135.711C134.088 133.05 131.852 129.978 130.144 126.611L125.392 117.157C124.569 115.454 123.284 114.015 121.685 113.005C120.085 111.996 118.234 111.455 116.342 111.444H108.658C106.777 111.445 104.933 111.971 103.335 112.963C101.736 113.954 100.445 115.372 99.6083 117.056L94.8561 126.611C93.1481 129.978 90.9122 133.05 88.2333 135.711L80.0939 143.851C79.1476 144.791 78.3969 145.91 77.885 147.142C77.3731 148.374 77.1101 149.695 77.1111 151.029V151.889C77.1111 153.217 77.3726 154.532 77.8808 155.758C78.3889 156.985 79.1337 158.1 80.0726 159.039C81.0115 159.977 82.1261 160.722 83.3529 161.23C84.5796 161.738 85.8944 162 87.2222 162H137.778C139.106 162 140.42 161.738 141.647 161.23C142.874 160.722 143.989 159.977 144.927 159.039C145.866 158.1 146.611 156.985 147.119 155.758C147.627 154.532 147.889 153.217 147.889 151.889V151.029C147.89 149.695 147.627 148.374 147.115 147.142C146.603 145.91 145.852 144.791 144.906 143.851L136.767 135.711Z" fill="black"/>
</svg>
