<?xml version="1.0" encoding="UTF-8" standalone="no"?>
<!-- Created with Inkscape (http://www.inkscape.org/) -->

<svg
   xmlns:dc="http://purl.org/dc/elements/1.1/"
   xmlns:cc="http://creativecommons.org/ns#"
   xmlns:rdf="http://www.w3.org/1999/02/22-rdf-syntax-ns#"
   xmlns:svg="http://www.w3.org/2000/svg"
   xmlns="http://www.w3.org/2000/svg"
   xmlns:sodipodi="http://sodipodi.sourceforge.net/DTD/sodipodi-0.dtd"
   xmlns:inkscape="http://www.inkscape.org/namespaces/inkscape"
   width="16.482828mm"
   height="14.68959mm"
   viewBox="0 0 16.482828 14.68959"
   version="1.1"
   id="svg8634"
   inkscape:version="0.92.1 r15371"
   sodipodi:docname="system refresh.svg">
  <defs
     id="defs8628" />
  <sodipodi:namedview
     id="base"
     pagecolor="#ffffff"
     bordercolor="#666666"
     borderopacity="1.0"
     inkscape:pageopacity="0.0"
     inkscape:pageshadow="2"
     inkscape:zoom="2.8"
     inkscape:cx="-4.6683255"
     inkscape:cy="-42.37234"
     inkscape:document-units="mm"
     inkscape:current-layer="layer1"
     showgrid="false"
     fit-margin-top="0"
     fit-margin-left="0"
     fit-margin-right="0"
     fit-margin-bottom="0"
     inkscape:window-width="1920"
     inkscape:window-height="1017"
     inkscape:window-x="-8"
     inkscape:window-y="-8"
     inkscape:window-maximized="1" />
  <metadata
     id="metadata8631">
    <rdf:RDF>
      <cc:Work
         rdf:about="">
        <dc:format>image/svg+xml</dc:format>
        <dc:type
           rdf:resource="http://purl.org/dc/dcmitype/StillImage" />
        <dc:title></dc:title>
      </cc:Work>
    </rdf:RDF>
  </metadata>
  <g
     inkscape:label="Layer 1"
     inkscape:groupmode="layer"
     id="layer1"
     transform="translate(-3.0978698,-4.6612284)">
    <path
       style="fill:#ffff00;fill-opacity:1;fill-rule:evenodd;stroke:none;stroke-width:0.03043123;stroke-opacity:1"
       d="m 16.498808,12.017565 c 1.09e-4,-0.136438 0.0054,-0.188388 0.01175,-0.115462 0.0064,0.07292 0.0061,0.18457 -1.97e-4,0.248056 -0.0064,0.06351 -0.01149,0.004 -0.01149,-0.132594 z"
       id="path9194"
       inkscape:connector-curvature="0" />
    <g
       transform="matrix(0.72081541,0,0,0.74841466,-9.8571214,-733.76495)"
       id="g9211"
       style="fill:#000000">
      <path
         inkscape:connector-curvature="0"
         id="path9190"
         d="m 27.559395,1005.5334 -0.130688,-0.6295 -0.727838,-0.2003 c -0.400311,-0.1102 -1.083864,-0.3634 -1.519009,-0.5627 l -0.791171,-0.3624 -0.601076,0.3736 c -0.330593,0.2056 -0.646476,0.3584 -0.701964,0.3397 -0.05549,-0.019 -0.654117,-0.5261 -1.330287,-1.1277 l -1.229399,-1.0937 0.408081,-0.5344 c 0.224445,-0.294 0.408082,-0.5864 0.408082,-0.6499 0,-0.063 -0.152391,-0.3854 -0.338645,-0.7155 -0.186255,-0.3301 -0.455092,-0.92461 -0.597416,-1.32107 -0.25824,-0.71936 -0.259888,-0.72099 -0.803933,-0.79769 -1.030851,-0.14532 -0.955319,0.003 -0.955319,-1.87415 v -1.67767 l 0.768439,-0.0823 c 0.691619,-0.0741 0.779952,-0.11351 0.883598,-0.39452 0.06334,-0.17172 0.331058,-0.77012 0.594935,-1.32979 l 0.479778,-1.01757 -0.428399,-0.5836 -0.428399,-0.5836 1.374967,-1.16677 1.374968,-1.16677 0.598916,0.39766 0.598916,0.39766 0.636062,-0.28089 c 0.349835,-0.15449 0.934868,-0.37491 1.300076,-0.48982 l 0.664013,-0.20893 0.140272,-0.74341 0.140271,-0.74342 h 1.920325 c 1.599874,0 1.920324,0.0284 1.920324,0.17002 0,0.38582 0.261942,1.35342 0.366391,1.35342 0.06193,0 0.613332,0.18755 1.225345,0.41678 l 1.112748,0.41677 0.662052,-0.40493 0.66205,-0.40492 1.296253,1.18546 c 0.712941,0.652 1.312391,1.22242 1.332113,1.2676 0.01973,0.0452 -0.146283,0.32076 -0.368903,0.61241 l -0.404761,0.53027 0.591825,1.16536 0.591825,1.16537 0.861062,0.1389 0.861062,0.1389 v 1.68139 1.68139 l -0.322266,0.0639 c -0.177246,0.0351 -0.52418,0.0987 -0.770963,0.14128 -0.304349,0.0525 -0.480192,0.15745 -0.546591,0.32627 -0.37721,0.95907 -0.885089,2.24141 -0.911896,2.30241 -0.0177,0.04 0.157973,0.3222 0.390387,0.6266 l 0.422573,0.5534 -0.644736,0.727 c -0.354604,0.3999 -0.878921,0.9898 -1.165149,1.311 l -0.520415,0.584 -0.676036,-0.4488 -0.676035,-0.4489 -0.892951,0.4158 c -0.491124,0.2286 -1.15574,0.5119 -1.476925,0.6295 -0.574404,0.2102 -0.585963,0.2242 -0.705528,0.8553 l -0.121555,0.6416 -1.834383,0.032 -1.834384,0.032 z m 3.747189,-2.3143 c 1.334209,-0.3697 2.170584,-0.8669 3.231553,-1.921 1.451306,-1.44192 2.037581,-2.82561 2.037581,-4.80898 0,-1.98226 -0.585875,-3.36558 -2.037581,-4.81099 -1.616737,-1.60973 -3.285638,-2.23839 -5.635418,-2.12281 -2.114235,0.10399 -3.535028,0.72618 -4.981321,2.18142 -2.103744,2.11675 -2.599465,5.11248 -1.291133,7.80255 0.633776,1.30311 2.174903,2.73471 3.605632,3.34931 1.441967,0.6194 3.53565,0.7559 5.070687,0.3305 z"
         style="fill:#000000;fill-opacity:1;fill-rule:evenodd;stroke:none;stroke-width:0.11718749;stroke-opacity:1" />
      <ellipse
         ry="7.4713569"
         rx="8.4819164"
         cy="995.99365"
         cx="29.294973"
         id="path9196"
         style="fill:#000000;fill-opacity:1;fill-rule:evenodd;stroke:none;stroke-width:1.03431356;stroke-opacity:1" />
    </g>
    <ellipse
       style="fill:#ffffff;fill-opacity:1;fill-rule:evenodd;stroke:none;stroke-width:0.12538114;stroke-opacity:1"
       id="path8815-0"
       cx="11.271603"
       cy="11.980262"
       rx="1.5771353"
       ry="1.6942191" />
    <g
       id="g9329"
       transform="matrix(0.84634838,0,0,0.80143125,-13.046366,-786.09268)"
       style="fill:#ffffff">
      <path
         style="opacity:1;fill:#ffffff;fill-opacity:1;stroke:none;stroke-width:0.5;stroke-linejoin:round;stroke-miterlimit:4;stroke-dasharray:none;stroke-dashoffset:0;stroke-opacity:1"
         d="m 23.699931,999.17453 a 6,6 0 0 0 3.878189,2.60747 6,6 0 0 0 7.034686,-4.74317 l 0.813476,0.1581 -1.581075,-2.3448 -2.344961,1.5811 0.997741,0.1943 a 3.84375,3.84375 0 0 1 -4.508387,3.0399 3.84375,3.84375 0 0 1 -3.089298,-3.3938 l -1.198354,0.808 a 0.17817269,0.17817269 0 0 1 -0.237357,-0.03 0.17817269,0.17817269 0 0 1 -0.0099,-0.015 l -0.72939,-1.0816 a 6,6 0 0 0 0.974038,3.2229 z"
         id="use8607"
         inkscape:connector-curvature="0" />
      <path
         style="opacity:1;fill:#ffffff;fill-opacity:1;stroke:none;stroke-width:0.5;stroke-linejoin:round;stroke-miterlimit:4;stroke-dasharray:none;stroke-dashoffset:0;stroke-opacity:1"
         d="m 33.765695,992.44493 a 5.9999999,5.9999999 0 0 0 -3.878189,-2.6075 5.9999999,5.9999999 0 0 0 -7.034686,4.7432 l -0.813475,-0.1581 1.581075,2.3448 2.34496,-1.5811 -0.997742,-0.1943 a 3.8437499,3.8437499 0 0 1 4.508388,-3.0399 3.8437499,3.8437499 0 0 1 3.089298,3.3938 l 1.198354,-0.808 a 0.17817269,0.17817269 0 0 1 0.237357,0.03 0.17817269,0.17817269 0 0 1 0.0099,0.015 l 0.72939,1.0816 a 5.9999999,5.9999999 0 0 0 -0.974038,-3.2229 z"
         id="use8607-8"
         inkscape:connector-curvature="0" />
    </g>
  </g>
</svg>
